<svg xmlns="http://www.w3.org/2000/svg" xmlns:xlink="http://www.w3.org/1999/xlink" width="192" height="77" viewBox="0 0 192 77"><title>equilibrium</title><desc>Created with Sketch.</desc> <!-- Generator: Sketch 51.3 (57544) - http://www.bohemiancoding.com/sketch -->    <g id="equilibrium-Page-1" stroke="none" stroke-width="1" fill="none" fill-rule="evenodd"> <g id="equilibrium-equilibrium" fill="#E5DFD9" fill-rule="nonzero"> <g id="equilibrium-Group" transform="translate(33.000000, 0.000000)"> <path d="M4,11.3 C3.3,10.1 2.8,8.6 2.8,7.1 C2.8,5.6 3.2,4.2 3.8,3.1 L3.9,3 C4.6,1.7 6.1,0.7 7.6,0.7 C8.6,0.7 9.6,1 10.4,1.4 C11.9,2.3 13,3.7 13.6,5.3 L13.6,2.9 C13.6,2.3 12.7,1.7 12.7,1.7 C11.3,0.7 9.5,-7.10542736e-15 7.6,-7.10542736e-15 C6.8,-7.10542736e-15 5.8,0.2 5.8,0.2 C2.6,0.8 0.2,3.7 0.2,7.1 C0.2,10.8 3,13.8 6.5,14.1 C6.5,14.1 7.2,14.2 7.7,14.2 C9.8,14.2 11.7,13.5 13.1,12.2 L13.3,12 C13.5,11.8 13.6,11.4 13.6,11.1 L13.6,9.1 C13.6,8.5 13.9,7.9 14.3,7.6 L10.5,7.6 C10.9,7.9 11.2,8.5 11.2,9.1 L11.2,11 C11.2,11.4 11,11.7 10.8,12 C10.5,12.4 9.3,13 9.3,13 C8.7,13.3 8.1,13.5 7.3,13.5 C6.1,13.5 4.7,12.6 4,11.3 Z" id="equilibrium-Shape"></path> <path d="M42.7,7 C42.7,10.4 45.1,13.2 48.3,13.9 C48.3,13.9 49.4,14.1 50.1,14.1 C52,14.1 53.8,13.5 55.2,12.4 C55.2,12.4 56.1,11.8 56.1,11.3 L56.5,8.7 C55.5,11.1 53.9,12.1 52.9,12.6 C52,13.2 51,13.5 50,13.5 C48.5,13.5 47,12.6 46.3,11.3 L46.2,11.2 C45.5,10 45.2,8.6 45.2,7.2 C45.2,5.7 45.6,4.3 46.2,3.2 L46.3,3.1 C47,1.8 48.5,0.8 50,0.8 C51,0.8 52,1.1 52.8,1.5 C54.3,2.4 55.4,3.8 56,5.4 L56,3 C56,2.4 55.1,1.8 55.1,1.8 C53.7,0.8 51.9,0.1 50,0.1 C49.2,0.1 48.2,0.3 48.2,0.3 C45.1,0.8 42.7,3.7 42.7,7" id="equilibrium-Shape"></path> <path d="M64.8,7.1 C64.8,10.5 67.2,13.3 70.4,14 C70.4,14 71.5,14.2 72.2,14.2 C74.1,14.2 75.9,13.6 77.3,12.5 C77.3,12.5 78.2,11.9 78.2,11.4 L78.6,8.8 C77.6,11.2 76,12.2 75,12.7 C74.2,13.1 73.2,13.4 72.2,13.4 C70.7,13.4 69.2,12.5 68.5,11.2 L68.4,11.1 C67.7,9.9 67.4,8.5 67.4,7.1 C67.4,5.6 67.8,4.2 68.4,3.1 L68.5,3 C69.2,1.7 70.7,0.7 72.2,0.7 C73.2,0.7 74.2,1 75,1.4 C76.5,2.3 77.6,3.7 78.2,5.3 L78.2,2.9 C78.2,2.3 77.3,1.7 77.3,1.7 C75.9,0.7 74.1,-7.10542736e-15 72.2,-7.10542736e-15 C71.4,-7.10542736e-15 70.4,0.2 70.4,0.2 C67.2,0.8 64.8,3.7 64.8,7.1" id="equilibrium-Shape"></path> <path d="M89.7,0.6 L86,0.6 C86.4,0.9 86.7,1.5 86.7,2 L86.7,12.8 C86.7,13.4 86.4,13.9 86,14.2 L89.6,14.2 C89.2,13.9 88.9,13.3 88.9,12.8 L88.9,2 C88.9,1.3 89.2,0.9 89.7,0.6 Z" id="equilibrium-Shape"></path> <path d="M25.8,0.6 L22.1,0.6 C22.5,0.9 22.8,1.5 22.8,2.1 L22.8,10.2 C22.9,11.7 23.8,12.9 25.1,13.5 C26.1,14 27.3,14.3 28.6,14.3 C29.9,14.3 31,14.1 32.1,13.5 C33.4,12.9 34.3,11.7 34.4,10.2 L34.4,2 C34.4,1.4 34.7,0.9 35.1,0.6 L33,0.6 C33.4,0.9 33.7,1.4 33.7,2 L33.7,10 C33.6,10.9 33.1,11.7 32.5,12.2 C31.8,12.8 30.5,13.2 29.3,13.2 C28.6,13.2 27.8,13 27.2,12.8 L27.1,12.8 C25.9,12.4 25,11.3 24.9,10 L24.9,2 C25.1,1.4 25.4,0.9 25.8,0.6 Z" id="equilibrium-Shape"></path> </g> <g id="equilibrium-Group" transform="translate(0.000000, 11.000000)"> <g transform="translate(130.000000, 0.000000)" id="equilibrium-Shape"> <path d="M7.6,65 C7.9,64.3 9.9,61 12.7,60.2 C15.5,59.4 19.2,60.8 20.2,60.2 C21.1,59.6 17.3,64.2 14.9,65 C12.5,65.8 11.2,66 9.8,65.7 C8.3,65.5 8.3,65.4 7.7,65.6 C6.9,65.8 7.6,65 7.6,65 Z"></path> <path d="M11.9,46.8 C11.9,46.8 12.8,48.4 12.9,49.4 C13,50.3 13.9,54.7 12.9,56.7 C11.9,58.7 10.9,60.7 9.4,61.5 C7.9,62.4 7.9,62.6 7.9,62.6 C7.9,62.6 8.5,61.6 8.5,58.8 C8.4,56 8.4,53.5 9.4,52 C10.2,50.6 11.9,48.2 11.9,46.8 Z"></path> <path d="M13.8,50 C13.8,50 14.1,53.7 13.8,55.6 C13.5,57.5 12.3,59 12.5,59 C12.7,59 14.9,56.2 15.9,54.2 C16.9,52.2 17.4,48.7 17.2,47.7 C17,46.7 17.1,46.8 16.5,47.5 C15.8,48.2 14.6,49.6 13.8,50 Z"></path> <path d="M17.1,53 C17.1,53 15,57.7 14.2,58.4 C13.4,59.1 13,59.4 13,59.4 C13,59.4 14.8,59 16.2,57.7 C17.6,56.4 18.3,53.5 19.4,52.3 C20.5,51.1 19.8,51.4 19.8,51.4 C19.8,51.4 17.6,53 17.1,53 Z"></path> <path d="M14.4,48.1 C14.4,48.1 15.8,47.1 16,46.9 C16.2,46.7 16.9,43.2 16.5,41.5 C16.1,39.8 14.2,37 13.6,36.5 C13,36 12.7,35.4 12.6,35 C12.5,34.6 12.3,37.1 12.4,37.8 C12.5,38.5 11.6,40.6 12.2,42.3 C12.8,44 13.7,44.5 13.9,45.4 C13.9,46.3 14.1,47.5 14.4,48.1 Z"></path> <path d="M17.9,47.9 C17.9,47.9 17.5,45 18.1,43.7 C18.7,42.4 19.3,40.9 20.5,39.6 C21.7,38.3 22.9,38.2 23.5,37.8 C24.1,37.4 24.4,36.9 24.5,37.5 C24.6,38.1 23.9,41.4 23,42.8 C22.1,44.2 20.1,46.8 19.3,47.2 C18.5,47.8 18.3,47.9 17.9,47.9 Z"></path> <path d="M18,49.9 C18,49.9 18,48.8 18,48.6 C18,48.4 19,48 20.1,47.3 C21.1,46.6 22.2,45.6 22.7,44.5 C23.2,43.3 23.7,42.5 23.8,42.3 C23.9,42.1 25,42.3 25.2,41.9 C25.4,41.5 25.2,44.8 23.3,46.6 C21.4,48.4 21,48.7 20,49.1 C19.1,49.6 18,49.9 18,49.9 Z"></path> <path d="M12.4,26.8 C13.1,27 15.3,28.6 15.9,29.8 C16.6,31 18.3,32.3 18.3,35 C18.4,37.6 18.1,40.1 17.6,40.7 C17.1,41.3 17.5,40.5 17,39.5 C16.6,38.6 14.8,35.7 14.3,34.2 C13.8,32.7 13,30.5 12.8,29.4 C12.9,28.3 12.4,26.8 12.4,26.8 Z"></path> <path d="M16.7,29.2 C16.9,29.4 18.5,31.5 18.9,33.1 C19.3,34.7 19.5,37.1 19.2,38.1 C19,39.1 20.2,33.6 20.4,31.9 C20.6,30.2 20.2,27.6 19.7,26.5 C19.2,25.4 18.4,23.6 18.1,24.1 C17.9,24.5 17.5,26.7 17.2,27.2 C16.8,27.6 16.7,29.2 16.7,29.2 Z"></path> <path d="M20.9,27.9 C20.9,27.9 21.3,30 21.1,31.6 C20.9,33.2 20.7,35.8 20.4,36.5 C20.1,37.2 19.2,39.3 19.3,39.2 C19.4,39.1 21.1,37.7 21.1,37.7 C21.1,37.7 21.8,36.7 22.2,34.5 C22.6,32.2 22.7,28.2 22.7,27.1 C22.7,26 22.8,25.5 22.9,25.4 C23.1,25.2 21.2,25.9 20.9,27.9 Z"></path> <path d="M17,25.5 C17,25.5 17.6,23.5 17.6,23.1 C17.5,22.7 15.6,19.7 15.2,19 C14.8,18.2 13,16.7 11.8,16.4 C10.6,16.1 9.2,15.4 9.2,15.8 C9.1,16.2 9.8,17.1 10.1,17.7 C10.4,18.3 11.8,21.3 12.7,21.8 C13.6,22.4 14.2,23.5 14.8,24.1 C15.4,24.8 17,25.5 17,25.5 Z"></path> <path d="M19.9,25.7 C19.9,25.7 17.9,21.7 17.3,20.3 C16.7,18.9 17.2,17.4 17.1,16.7 C17,16 16.2,14.3 16.6,13 C17,11.7 17.8,10.1 17.9,10.6 C18,11.1 18.8,14.5 19.2,15 C19.7,15.6 20.2,14.9 20.4,14.5 C20.6,14.1 21.5,13.6 21.2,14.3 C20.9,15 21.4,18.2 21.3,19.1 C21.2,20.1 20.8,21.6 21,22.3 C21.2,23 20.9,24.4 20.5,24.9 C20.3,25.4 19.9,25.7 19.9,25.7 Z"></path> <path d="M10.6,3.6 C10.4,4 10.8,5.4 10.9,6.4 C11,7.4 11.1,8.9 11.4,9.6 C11.7,10.3 13.1,13.5 13.8,14.2 C14.5,14.9 15.8,16.6 15.7,17 C15.6,17.3 15.8,15.2 15.7,13.5 C15.6,11.8 15.1,9.2 14.3,7.9 C13.4,6.7 12.5,5.3 11.9,4.9 C11.4,4.6 10.6,3.6 10.6,3.6 Z"></path> <path d="M5,7.5 C5.2,7.4 6.8,7.7 7.9,8 C8.9,8.2 10.2,8.7 10.6,9.7 C11,10.7 12.1,13.6 12.8,14.4 C13.5,15.2 15.2,16.8 14.8,16.6 C14.3,16.4 11.1,15 10.6,14.4 C10,13.8 8.8,13.5 8.2,12.6 C7.6,11.7 6.2,8.9 5.8,8.4 C5.3,8 4.5,7.8 5,7.5 Z"></path> <path d="M0.8,0.7 C1.3,0.3 2.4,0.4 3.1,0.7 C3.8,1 5.8,1.6 6.8,3 C7.8,4.4 9.2,5.8 9.6,6.9 C10,7.9 9.8,8.3 9.4,7.9 C9,7.5 7.2,6.1 6.3,6.2 C5.4,6.3 4.2,6.3 3.1,5.5 C1.9,4.5 0.3,1.1 0.8,0.7 Z"></path> </g> <g id="equilibrium-Shape"> <path d="M18.4,65 C18.1,64.3 16.1,61 13.3,60.2 C10.5,59.4 6.8,60.8 5.8,60.2 C4.8,59.6 8.7,64.2 11.1,65 C13.5,65.8 14.8,66 16.2,65.7 C17.6,65.4 17.7,65.4 18.3,65.6 C19.1,65.8 18.4,65 18.4,65 Z"></path> <path d="M14.1,46.8 C14.1,46.8 13.2,48.4 13.1,49.4 C13,50.4 12.1,54.7 13.1,56.7 C14.1,58.7 15.1,60.7 16.6,61.5 C18.1,62.4 18.1,62.6 18.1,62.6 C18.1,62.6 17.5,61.6 17.5,58.8 C17.6,56 17.6,53.5 16.6,52 C15.8,50.6 14.1,48.2 14.1,46.8 Z"></path> <path d="M12.2,50 C12.2,50 11.9,53.7 12.2,55.6 C12.5,57.5 13.7,59 13.5,59 C13.4,59 11.1,56.2 10.1,54.2 C9.1,52.2 8.6,48.7 8.8,47.7 C9,46.7 8.9,46.8 9.5,47.5 C10.2,48.2 11.4,49.6 12.2,50 Z"></path> <path d="M8.9,53 C8.9,53 11,57.7 11.8,58.4 C12.6,59.1 13,59.4 13,59.4 C13,59.4 11.2,59 9.8,57.7 C8.4,56.4 7.7,53.5 6.6,52.3 C5.5,51.1 6.2,51.4 6.2,51.4 C6.2,51.4 8.4,53 8.9,53 Z"></path> <path d="M11.6,48.1 C11.6,48.1 10.2,47.1 10,46.9 C9.8,46.7 9.1,43.2 9.5,41.5 C9.9,39.8 11.8,37 12.4,36.5 C13,36 13.3,35.4 13.4,35 C13.5,34.6 13.7,37.1 13.6,37.8 C13.5,38.5 14.4,40.6 13.8,42.3 C13.2,43.9 12.3,44.5 12.1,45.4 C12.1,46.3 11.9,47.5 11.6,48.1 Z"></path> <path d="M8.1,47.9 C8.1,47.9 8.5,45 7.9,43.7 C7.3,42.4 6.7,40.9 5.5,39.6 C4.3,38.3 3.1,38.2 2.5,37.8 C1.9,37.4 1.6,36.9 1.5,37.5 C1.4,38.1 2.1,41.4 3,42.8 C3.9,44.2 5.9,46.8 6.7,47.2 C7.5,47.8 7.7,47.9 8.1,47.9 Z"></path> <path d="M8,49.9 C8,49.9 8,48.8 8,48.6 C8,48.4 7,48 5.9,47.3 C4.9,46.6 3.8,45.6 3.3,44.5 C2.7,43.4 2.3,42.5 2.2,42.3 C2.1,42.1 1,42.3 0.8,41.9 C0.6,41.5 0.8,44.8 2.7,46.6 C4.6,48.4 5,48.7 6,49.1 C6.9,49.6 8,49.9 8,49.9 Z"></path> <path d="M13.6,26.8 C12.9,27 10.7,28.6 10.1,29.8 C9.4,31 7.6,32.3 7.6,35 C7.6,37.7 7.8,40.1 8.3,40.7 C8.8,41.3 8.4,40.5 8.9,39.5 C9.3,38.6 11.1,35.7 11.6,34.2 C12.1,32.7 12.9,30.5 13.1,29.4 C13.1,28.3 13.6,26.8 13.6,26.8 Z"></path> <path d="M9.3,29.2 C9.1,29.4 7.5,31.5 7.1,33.1 C6.7,34.7 6.5,37.1 6.8,38.1 C7,39.1 5.8,33.6 5.6,31.9 C5.4,30.2 5.8,27.6 6.3,26.5 C6.8,25.4 7.6,23.6 7.9,24.1 C8.1,24.5 8.5,26.7 8.8,27.2 C9.2,27.6 9.3,29.2 9.3,29.2 Z"></path> <path d="M5.1,27.9 C5.1,27.9 4.7,30 4.9,31.6 C5,33.2 5.3,35.8 5.6,36.5 C5.9,37.2 6.8,39.3 6.7,39.2 C6.6,39.1 4.9,37.7 4.9,37.7 C4.9,37.7 4.2,36.7 3.8,34.5 C3.4,32.2 3.3,28.2 3.3,27.1 C3.3,26 3.2,25.5 3.1,25.4 C2.9,25.2 4.8,25.9 5.1,27.9 Z"></path> <path d="M9,25.5 C9,25.5 8.4,23.5 8.4,23.1 C8.5,22.7 10.4,19.7 10.8,19 C11.2,18.2 13,16.7 14.2,16.4 C15.4,16.1 16.8,15.4 16.8,15.8 C16.9,16.2 16.2,17.1 15.9,17.7 C15.6,18.3 14.2,21.3 13.3,21.8 C12.4,22.3 11.8,23.5 11.2,24.1 C10.6,24.8 9,25.5 9,25.5 Z"></path> <path d="M6.1,25.7 C6.1,25.7 8.1,21.7 8.7,20.3 C9.3,18.9 8.8,17.4 8.9,16.7 C9,16 9.7,14.2 9.4,12.9 C9,11.7 8.2,10 8,10.6 C7.8,11.2 7.2,14.4 6.7,15 C6.2,15.6 5.7,14.9 5.5,14.5 C5.3,14.1 4.4,13.6 4.7,14.3 C5,15 4.5,18.2 4.6,19.1 C4.7,20.1 5.1,21.6 4.9,22.3 C4.7,23 5,24.4 5.4,24.9 C5.7,25.4 6.1,25.7 6.1,25.7 Z"></path> <path d="M15.4,3.6 C15.6,4 15.2,5.4 15.1,6.4 C15,7.4 14.9,8.9 14.6,9.6 C14.3,10.3 12.9,13.5 12.2,14.2 C11.5,14.9 10.2,16.6 10.3,17 C10.4,17.3 10.2,15.2 10.3,13.5 C10.4,11.8 10.9,9.2 11.7,7.9 C12.6,6.7 13.5,5.3 14.1,4.9 C14.6,4.6 15.4,3.6 15.4,3.6 Z"></path> <path d="M21,7.5 C20.8,7.4 19.2,7.7 18.1,8 C17.1,8.2 15.8,8.7 15.4,9.7 C15,10.7 13.9,13.6 13.2,14.4 C12.5,15.2 10.8,16.8 11.2,16.6 C11.7,16.4 14.9,15 15.4,14.4 C16,13.8 17.2,13.5 17.8,12.6 C18.4,11.7 19.8,8.9 20.2,8.4 C20.7,8 21.5,7.8 21,7.5 Z"></path> <path d="M27.8,0.7 C27.4,0.2 25.7,1.1 25.2,0.7 C24.7,0.3 23.6,0.4 22.9,0.7 C22.2,1 20.2,1.6 19.2,3 C18.1,4.4 16.8,5.8 16.4,6.9 C16,7.9 16.2,8.3 16.6,7.9 C17,7.5 18.8,6.1 19.7,6.2 C20.6,6.3 21.8,6.3 22.9,5.5 C24,4.7 25.7,3.8 26.3,2.8 C26.9,1.7 28.1,1.2 27.8,0.7 Z"></path> </g> </g> <g id="equilibrium-Group" transform="translate(31.000000, 17.000000)"> <path d="M37.3,37.2 C37.5,37.3 37.9,37.6 38.2,37.8 C39.1,38.5 40.6,39.5 42.1,40.1 C43.4,40.7 45,40.9 46.7,40.9 C48.4,40.9 50.1,40.7 51.7,40.1 C54.8,39 57.6,36.7 58.2,36 C58.3,35.9 58.3,35.9 58.3,35.9 C58.4,35.8 58.8,35.6 58.8,35.1 C58.8,34.6 58.6,34.4 57.5,33.6 L56.8,33 C53.8,30.8 50.6,28.7 48.3,28.5 C45.7,28.3 43.9,28.3 41.1,29.9 C38.2,31.5 35.8,35.2 35.7,35.3 L35.2,36 L36,36.4 C35.9,36.7 36.6,37 37.3,37.2 Z M45.5,30.8 C46.5,30.8 47.5,31.7 47.5,32.8 C47.5,33.9 46.6,34.8 45.5,34.8 C44.4,34.8 43.5,33.9 43.5,32.8 C43.5,31.7 44.4,30.8 45.5,30.8 Z M41.7,31.5 C41.9,31.4 42.2,31.3 42.4,31.1 C42,31.9 41.7,32.8 41.7,33.7 C41.7,35 42.1,36.1 42.9,37.1 C44.2,36.8 45.6,36.6 47.1,36.6 C48.6,36.6 50,36.8 51.3,37.1 C52,36.2 52.5,35 52.5,33.7 C52.5,33.1 52.4,32.5 52.2,31.9 C53.5,32.8 54.9,33.7 55.8,34.4 L56.5,35 C56.6,35.1 56.7,35.2 56.9,35.2 C56.3,35.8 53.9,37.8 51.1,38.7 C48,39.8 44.5,39.5 42.6,38.7 C41.3,38.1 40,37.2 39.1,36.5 C38.5,36 38.1,35.8 37.8,35.6 L37.7,35.6 C37.6,35.5 37.5,35.5 37.4,35.5 C38.3,34.5 39.9,32.4 41.7,31.5 Z" id="equilibrium-Shape"></path> <path d="M34.8,33.2 L34.7,33.4 L35.2,33.8 L35.3,33.6 C37,31.4 40.2,27.2 46.4,26.8 C52.2,26.4 55.4,29.8 57.5,32 C58.5,33 59.2,33.7 59.8,33.9 L59.9,33.3 C59.4,33.2 58.7,32.4 57.9,31.6 C55.7,29.3 52.3,25.8 46.3,26.2 C39.8,26.6 36.4,31 34.8,33.2 Z" id="equilibrium-Shape"></path> <path d="M55.9,41.8 L55.7,41.2 C55.6,41.3 55.5,41.3 55.2,41.4 C54,42.1 51,43.8 47.1,43.8 C43.2,43.9 40.7,42.1 39.3,41 C39,40.8 38.7,40.6 38.5,40.4 L38.2,41 C38.4,41.1 38.6,41.3 38.9,41.5 C40.3,42.5 42.9,44.4 46.8,44.4 C46.9,44.4 47,44.4 47.1,44.4 C51.2,44.3 54.3,42.6 55.5,41.9 C55.6,41.9 55.8,41.8 55.9,41.8 Z" id="equilibrium-Shape"></path> <path d="M55.7,28.1 L56.1,27.7 C51.5,22.9 45.1,24 42.5,25.3 L42.7,25.9 C45.3,24.7 51.3,23.6 55.7,28.1 Z" id="equilibrium-Shape"></path> <path d="M97.5,34.7 L97.5,34.1 L77.1,34.1 L74.7,26.7 L78.7,25.5 L78.5,24.9 L74.4,26.1 L72.4,20.1 L88.1,11.3 L87.8,10.7 L73.2,18.9 C73.5,18.4 73.7,17.9 73.7,17.2 C73.7,15.5 72.3,14.1 70.6,14.1 C69.6,14.1 68.7,14.6 68.2,15.3 C67.8,15.3 66.4,15.2 63.3,14.4 L63,14.3 C61.3,13.9 59.9,13.5 58.5,13.2 L62.9,5.1 L62.3,5 L57.8,13.3 C56.6,13.1 55.5,12.9 54.3,12.9 C53.6,12.9 52.9,13 52.2,13 L54.3,4.6 L53.7,4.5 L51.6,13.2 C50.1,13.5 48.9,14.1 48.1,14.5 L48.1,6.5 C49.1,5.9 49.8,5 49.8,3.7 C49.8,2 48.4,0.6 46.7,0.6 C45,0.6 43.6,2 43.6,3.7 C43.6,4.9 44.3,5.8 45.2,6.4 L45.2,14.2 C44.2,13.6 42.6,13.1 40.9,12.9 L37.8,2.1 L37,2.3 L40,12.8 C39.7,12.8 39.4,12.8 39.1,12.8 C37.7,12.9 36.4,13 34.9,13.3 L29.2,3.1 L28.6,3.4 L34.2,13.4 C33,13.6 31.8,14 30.3,14.4 L30,14.5 C29.1,14.7 28.4,14.9 27.8,15 L21.2,8.2 L20.8,8.6 L27.1,15.1 C26.4,15.2 25.9,15.3 25.5,15.3 C24.9,14.6 24,14.1 23.1,14.1 C21.4,14.1 20,15.5 20,17.2 C20,18.2 20.5,19.1 21.2,19.6 L21.1,20 L7.5,12.5 L7.2,13.1 L20.9,20.6 L19.1,26.8 L0.6,21.9 L0.4,22.5 L19,27.4 L17.1,34 L3,34 L3,34.6 L17.3,34.6 L14.8,43 L4.2,46 L4.4,46.6 L14.6,43.7 L12.5,50.9 L12.6,51.1 C13.8,53.7 16.6,58 22.8,58 C22.9,58 22.9,58 23,58 C28.5,58 33.4,55.2 35.3,51.1 L35.4,50.9 L34.1,47 L35.5,45.6 L35.1,45.2 L33.9,46.4 L32.7,42.6 L35.1,41.2 L34.8,40.6 L32.5,42 L31.5,39 L33.9,38.3 L33.7,37.7 L31.3,38.4 L30.1,34.7 L33.3,34.7 L33.3,34 L29.9,34 L28.5,29.8 L31.5,30.6 L31.7,30 L28.3,29.1 L26.4,23.4 L32,26.5 L32.3,25.9 L26.1,22.5 L25.2,19.7 C25.7,19.3 26.1,18.9 26.4,18.3 C27.2,18.4 28.5,18.6 30.7,19.1 C31.1,19.2 31.6,19.3 31.9,19.4 L36,23.6 L36.4,23.2 L33,19.7 C35.2,20.3 36.9,20.6 38.8,20.7 L39.9,22.7 L40.5,22.4 L39.6,20.7 C40.6,20.7 41.7,20.6 42.6,20.3 L42.9,21.3 L43.5,21.1 L43.2,20.1 C43.9,19.9 44.5,19.7 44.9,19.4 C45.5,19.8 46.1,20.1 46.9,20.1 C47.7,20.1 48.4,19.8 49,19.3 C49.3,19.5 49.7,19.7 50.2,19.9 L49.9,21.1 L50.5,21.2 L50.8,20.1 C51.7,20.4 52.8,20.7 54,20.7 L53.1,22.3 L53.7,22.6 L54.7,20.8 C56.9,20.7 58.8,20.4 61.4,19.7 L57.6,23.4 L58,23.8 L62.4,19.5 C62.6,19.4 63,19.4 63.3,19.3 C65.8,18.6 67.3,18.5 68,18.4 C68.2,19 68.6,19.4 69,19.7 L68.4,21.7 L61.5,25.6 L61.8,26.2 L68.1,22.7 L66.4,28.5 L62.4,29.7 L62.6,30.3 L66.3,29.3 L64.9,34.3 L62.9,34.3 L62.9,34.9 L64.7,34.9 L63.6,38.7 L61.4,38.1 L61.2,38.7 L63.4,39.3 L62.4,42.8 L58.6,40.7 L58.3,41.3 L62.2,43.4 L60.7,48.4 L57.4,45 L57,45.4 L60.5,49 L59.9,51 L60,51.2 C61.2,53.8 64,58.1 70.2,58.1 C70.3,58.1 70.3,58.1 70.4,58.1 C75.9,58.1 80.8,55.3 82.7,51.2 L82.8,51 L80.4,43.7 L91.7,46.7 L91.9,46.1 L80.2,43 L77.5,34.8 L97.5,34.7 Z M75.5,34.1 L70.9,34.1 L70.9,27.8 L73.2,27.2 L75.5,34.1 Z M73,26.6 L70.9,27.2 L70.9,21.1 L71.1,21 L73,26.6 Z M22.9,20.4 C23,20.4 23,20.4 23.1,20.4 L23.1,21.1 L22.8,20.9 L22.9,20.4 Z M22.6,21.5 L23.1,21.7 L23.1,27.8 L21,27.2 L22.6,21.5 Z M20.8,27.9 L23.1,28.5 L23.1,34.1 L19,34.1 L20.8,27.9 Z M18.8,34.7 L23.1,34.7 L23.1,40.8 L16.6,42.6 L18.8,34.7 Z M23.1,41.4 L23.1,48.9 C21,48.9 16.8,49.1 14.5,49.8 L16.3,43.4 L23.1,41.4 Z M33.7,50.7 L33.8,50.8 C33.7,50.9 33.7,51 33.7,51 C32.4,51.4 28.9,51.9 24.1,51.9 C19.1,51.9 15.7,51.4 14.4,50.9 C14.3,50.8 14.3,50.7 14.3,50.7 L14.3,50.6 C15.5,50.1 19,49.6 24.1,49.6 C29,49.7 32.4,50.2 33.7,50.7 Z M22.8,56.5 C18.6,56.4 16.3,54.2 14.9,52.1 C17.7,52.8 22.7,52.8 24,52.8 C24.8,52.8 26.9,52.8 29.1,52.6 C28.9,53 28.7,53.7 28.5,54 C28.3,54.5 27.6,55.2 26.7,56 C26.7,56 26.7,56 26.6,56 C25.5,56.4 24.2,56.6 22.8,56.5 Z M33.4,49.6 C32.9,49.5 32.4,49.4 31.8,49.3 L32.9,48.2 L33.4,49.6 Z M31.1,42.8 L25.3,46.1 L25.6,46.7 L31.3,43.5 L32.7,47.7 L31,49.3 C28.2,48.9 25,48.9 24,48.9 C23.9,48.9 23.8,48.9 23.7,48.9 L23.7,41.3 L30,39.5 L31.1,42.8 Z M29.8,38.8 L23.7,40.5 L23.7,34.6 L28.4,34.6 L29.8,38.8 Z M28.2,34.1 L23.7,34.1 L23.7,28.7 L26.7,29.5 L28.2,34.1 Z M26.4,28.8 L23.7,28 L23.7,22.1 L24.4,22.5 L26.4,28.8 Z M23.7,21.4 L23.7,20.5 L24.1,21.7 L23.7,21.4 Z M26.4,17.7 C26.4,17.6 26.5,17.5 26.5,17.3 C26.5,17.1 26.4,16.8 26.4,16.6 C27.3,16.5 28.6,16.3 30.6,15.8 L30.9,15.7 C34.4,14.8 36.6,14.2 39.2,14.2 C41.3,14.1 43.1,14.8 44.2,15.4 C43.7,16 43.4,16.7 43.4,17.4 C43.4,17.5 43.4,17.6 43.5,17.8 L26.4,17.7 Z M45.7,14.4 L45.7,6.9 C46,7 46.3,7.1 46.6,7.1 C46.9,7.1 47.2,7 47.5,7 L47.5,14.5 C47.3,14.4 46.9,14.4 46.6,14.4 C46.3,14.2 46,14.3 45.7,14.4 Z M49.7,17.7 C49.7,17.6 49.8,17.5 49.8,17.3 C49.8,16.6 49.6,15.9 49.1,15.3 C50.1,14.7 52.2,14 54.4,14.1 C57,14.2 59.2,14.7 62.7,15.6 L63,15.7 C65.4,16.3 66.9,16.5 67.6,16.6 C67.5,16.8 67.5,17 67.5,17.3 C67.5,17.4 67.5,17.5 67.6,17.7 L49.7,17.7 Z M70.2,20.4 C70.3,20.4 70.3,20.4 70.3,20.4 L70.3,20.6 L70.1,20.7 L70.2,20.4 Z M69.8,21.6 L70.3,21.4 L70.3,27.4 L68,28 L69.8,21.6 Z M67.8,28.6 L70.3,27.9 L70.3,34 L66.3,34 L67.8,28.6 Z M66.1,34.7 L70.3,34.7 L70.3,40.3 L64.9,38.9 L66.1,34.7 Z M64.7,39.5 L70.3,41 L70.3,47.2 L63.6,43.5 L64.7,39.5 Z M63.4,44 L70.3,47.8 L70.3,48.8 C68.2,48.8 64.2,49 61.9,49.6 L61.8,49.5 L63.4,44 Z M81.1,50.8 C81,50.8 81,51 81,51 C79.7,51.4 76.2,51.9 71.4,51.9 C66.4,51.9 63,51.4 61.7,50.9 C61.6,50.8 61.6,50.7 61.6,50.7 L61.6,50.6 C62.8,50.1 66.3,49.6 71.4,49.6 C76.4,49.6 79.8,50.1 81.1,50.6 L81.1,50.8 Z M71.3,48.8 C71.2,48.8 71.1,48.8 70.9,48.8 L70.9,48.1 L72.1,48.8 C71.8,48.8 71.5,48.8 71.3,48.8 Z M70.1,56.5 C65.9,56.4 63.6,54.2 62.2,52.1 C65,52.8 70,52.8 71.3,52.8 C72.1,52.8 74.1,52.8 76.3,52.6 C76.1,53 75.9,53.6 75.7,53.9 C75.5,54.4 74.8,55.2 73.9,55.9 C73.8,56 73.8,56 73.8,56 C72.7,56.2 71.5,56.4 70.3,56.4 C70.2,56.6 70.2,56.6 70.1,56.5 Z M80.6,49.6 C78.7,49 75.6,48.9 73.4,48.8 L70.8,47.4 L70.8,41 L78.4,43 L80.6,49.6 Z M78.3,42.4 L71,40.4 L71,34.6 L75.8,34.6 L78.3,42.4 Z" id="equilibrium-Shape"></path> <rect id="equilibrium-Rectangle-path" transform="translate(35.509405, 54.896000) rotate(-61.164104) translate(-35.509405, -54.896000) " x="25.4594588" y="54.3960027" width="20.0998924" height="1"></rect> <rect id="equilibrium-Rectangle-path" x="46.3" y="47.7" width="1" height="14.6"></rect> <rect id="equilibrium-Rectangle-path" transform="translate(52.182300, 53.137280) rotate(-15.592811) translate(-52.182300, -53.137280) " x="51.6822981" y="49.0372643" width="1" height="8.20003149"></rect> <rect id="equilibrium-Rectangle-path" transform="translate(57.662250, 53.714540) rotate(-29.433599) translate(-57.662250, -53.714540) " x="57.1622648" y="44.7148065" width="1" height="17.9994669"></rect> <rect id="equilibrium-Rectangle-path" transform="translate(41.642530, 54.742670) rotate(-75.977653) translate(-41.642530, -54.742670) " x="35.9425376" y="54.2426707" width="11.3999848" height="1"></rect> </g> <g id="equilibrium-Group" transform="translate(15.000000, 84.000000)"> <polygon id="equilibrium-Shape" points="0.5 0.4 8.2 0.4 8.2 3 3.3 3 3.3 7.8 7.2 7.8 7.2 10.4 3.3 10.4 3.3 16 8.2 16 8.2 18.6 0.5 18.6 0.5 0.4"></polygon> <path d="M18.5,18.5 C18,18.7 17.3,18.8 16.6,18.8 C13.8,18.8 12.3,17.1 12.3,14.3 L12.3,4.8 C12.3,1.9 13.8,0.3 16.6,0.3 C19.4,0.3 20.9,2 20.9,4.8 L20.9,14.3 C20.9,15.5 20.6,16.5 20.1,17.3 C20.3,17.7 20.6,17.7 21.2,17.7 L21.6,17.7 L21.6,20.3 L20.9,20.3 C19.8,20.2 18.8,19.8 18.5,18.5 Z M18,14.4 L18,4.5 C18,3.2 17.4,2.7 16.5,2.7 C15.6,2.7 15,3.2 15,4.5 L15,14.4 C15,15.7 15.6,16.2 16.5,16.2 C17.5,16.2 18,15.7 18,14.4 Z" id="equilibrium-Shape"></path> <path d="M25.3,14.2 L25.3,0.4 L28.1,0.4 L28.1,14.4 C28.1,15.7 28.6,16.2 29.5,16.2 C30.4,16.2 30.9,15.7 30.9,14.4 L30.9,0.4 L33.6,0.4 L33.6,14.2 C33.6,17.1 32.2,18.7 29.4,18.7 C26.7,18.8 25.3,17.1 25.3,14.2 Z" id="equilibrium-Shape"></path> <polygon id="equilibrium-Shape" points="38.3 0.4 41.1 0.4 41.1 18.5 38.3 18.5"></polygon> <polygon id="equilibrium-Shape" points="45.9 0.4 48.7 0.4 48.7 15.9 53.4 15.9 53.4 18.5 45.9 18.5 45.9 0.4"></polygon> <polygon id="equilibrium-Shape" points="57.3 0.4 60.1 0.4 60.1 18.5 57.3 18.5"></polygon> <path d="M64.9,0.4 L69.2,0.4 C72.1,0.4 73.4,1.8 73.4,4.6 L73.4,5.3 C73.4,7.2 72.8,8.3 71.6,8.8 L71.6,8.9 C73.1,9.4 73.7,10.8 73.7,12.7 L73.7,14.3 C73.7,17.1 72.2,18.6 69.4,18.6 L64.9,18.6 L64.9,0.4 Z M68.8,7.8 C69.9,7.8 70.5,7.3 70.5,5.9 L70.5,4.9 C70.5,3.6 70.1,3 69.1,3 L67.7,3 L67.7,7.8 L68.8,7.8 Z M69.4,15.9 C70.4,15.9 70.9,15.5 70.9,14.1 L70.9,12.5 C70.9,10.8 70.4,10.3 69.1,10.3 L67.8,10.3 L67.8,15.9 L69.4,15.9 Z" id="equilibrium-Shape"></path> <path d="M77.9,0.4 L82.1,0.4 C85,0.4 86.3,1.8 86.3,4.6 L86.3,5.7 C86.3,7.6 85.7,8.7 84.4,9.3 L84.4,9.4 C85.8,9.8 86.3,11.2 86.3,13.2 L86.3,16.4 C86.3,17.3 86.3,17.9 86.6,18.6 L83.7,18.6 C83.5,18.1 83.4,17.9 83.4,16.4 L83.4,13 C83.4,11.3 82.9,10.8 81.6,10.8 L80.6,10.8 L80.6,18.5 L77.8,18.5 L77.8,0.4 L77.9,0.4 Z M81.8,8.2 C82.9,8.2 83.5,7.7 83.5,6.3 L83.5,4.9 C83.5,3.6 83.1,3 82.1,3 L80.8,3 L80.8,8.2 L81.8,8.2 Z" id="equilibrium-Shape"></path> <polygon id="equilibrium-Shape" points="90.9 0.4 93.7 0.4 93.7 18.5 90.9 18.5"></polygon> <path d="M98.3,14.2 L98.3,0.4 L101.1,0.4 L101.1,14.4 C101.1,15.7 101.6,16.2 102.5,16.2 C103.4,16.2 103.9,15.7 103.9,14.4 L103.9,0.4 L106.6,0.4 L106.6,14.2 C106.6,17.1 105.2,18.7 102.4,18.7 C99.8,18.8 98.3,17.1 98.3,14.2 Z" id="equilibrium-Shape"></path> <polygon id="equilibrium-Shape" points="111.4 0.4 115.5 0.4 117.3 13.3 117.4 13.3 119.2 0.4 123.3 0.4 123.3 18.5 120.6 18.5 120.6 4.8 120.5 4.8 118.4 18.5 116 18.5 113.9 4.8 113.8 4.8 113.8 18.5 111.3 18.5 111.3 0.4"></polygon> </g> </g> </g> </svg>